<?xml version="1.0" encoding="UTF-8"?>
<svg width="18px" height="20px" viewBox="0 0 18 20" version="1.1" xmlns="http://www.w3.org/2000/svg" xmlns:xlink="http://www.w3.org/1999/xlink">
    <!-- Generator: Sketch 48.2 (47327) - http://www.bohemiancoding.com/sketch -->
    <title>address-white</title>
    <desc>Created with Sketch.</desc>
    <defs></defs>
    <g id="UI" stroke="none" stroke-width="1" fill="none" fill-rule="evenodd" transform="translate(-1212.000000, -214.000000)">
        <g id="Icons" transform="translate(820.000000, 210.000000)" fill="#474E5D" fill-rule="nonzero">
            <g id="address-white" transform="translate(387.000000, 0.000000)">
                <path d="M17.3783663,16.2913645 C20.6748921,16.8851239 23,18.3218824 23,20 C23,22.209139 18.9705627,24 14,24 C9.02943725,24 5,22.209139 5,20 C5,18.3218824 7.32510789,16.8851239 10.6216337,16.2913645 C8.87387791,13.5573924 8,11.4602709 8,10 C8,6.6862915 10.6862915,4 14,4 C17.3137085,4 20,6.6862915 20,10 C20,11.4602709 19.1261221,13.5573924 17.3783663,16.2913645 Z M16.1411748,18.127086 C15.5058907,19.0275592 14.7921658,19.9851972 14,21 C13.2078342,19.9851972 12.4941093,19.0275592 11.8588252,18.127086 C10.5490111,18.2862658 9.37178666,18.5887645 8.4483159,18.999196 C7.85131262,19.2645308 7.41023729,19.5546985 7.15605495,19.8217894 C7.02364415,19.9609247 7,20.0122785 7,20 C7,19.9877215 7.02364415,20.0390753 7.15605495,20.1782106 C7.41023729,20.4453015 7.85131262,20.7354692 8.4483159,21.000804 C9.85358918,21.6253699 11.8464704,22 14,22 C16.1535296,22 18.1464108,21.6253699 19.5516841,21.000804 C20.1486874,20.7354692 20.5897627,20.4453015 20.843945,20.1782106 C20.9763559,20.0390753 21,19.9877215 21,20 C21,20.0122785 20.9763559,19.9609247 20.843945,19.8217894 C20.5897627,19.5546985 20.1486874,19.2645308 19.5516841,18.999196 C18.6282133,18.5887645 17.4509889,18.2862658 16.1411748,18.127086 Z M18,10 C18,7.790861 16.209139,6 14,6 C11.790861,6 10,7.790861 10,10 C10,11.3598197 11.3267644,13.9998572 14,17.6798799 C16.6732356,13.9998572 18,11.3598197 18,10 Z M14,11 C13.4477153,11 13,10.5522847 13,10 C13,9.44771525 13.4477153,9 14,9 C14.5522847,9 15,9.44771525 15,10 C15,10.5522847 14.5522847,11 14,11 Z" id="Address"></path>
            </g>
        </g>
    </g>
</svg>