<?xml version="1.0" encoding="UTF-8"?>
<svg width="58px" height="74px" viewBox="0 0 58 74" version="1.1" xmlns="http://www.w3.org/2000/svg" xmlns:xlink="http://www.w3.org/1999/xlink">
    <!-- Generator: Sketch 48.2 (47327) - http://www.bohemiancoding.com/sketch -->
    <title>header-untraceable</title>
    <desc>Created with Sketch.</desc>
    <defs></defs>
    <g id="Dashboard_MainPage" stroke="none" stroke-width="1" fill="none" fill-rule="evenodd" transform="translate(-572.000000, -765.000000)">
        <g id="01" transform="translate(249.000000, 729.000000)">
            <g id="header-untraceable" transform="translate(323.000000, 36.000000)">
                <path d="M58,61.8292943 L58,69 C58,71.7614237 55.6814746,74 52.8214286,74 L5.17857143,74 C2.3185254,74 -1.93221629e-12,71.7614237 -1.93267624e-12,69 L-1.93267624e-12,17.8292943 C0.312778925,17.9398458 0.649364577,18 1,18 C1.35063542,18 1.68722107,17.9398458 2,17.8292943 L2,69 C2,70.6568542 3.3948052,72 5.11538462,72 L52.8846154,72 C54.6051948,72 56,70.6568542 56,69 L56,61.8292943 C56.3127789,61.9398458 56.6493646,62 57,62 C57.3506354,62 57.6872211,61.9398458 58,61.8292943 Z M58,56.1707057 C57.6872211,56.0601542 57.3506354,56 57,56 C56.6493646,56 56.3127789,56.0601542 56,56.1707057 L56,5 C56,3.34314575 54.6051948,2 52.8846154,2 L5.11538462,2 C3.3948052,2 2,3.34314575 2,5 L2,12.1707057 C1.68722107,12.0601542 1.35063542,12 1,12 C0.649364577,12 0.312778925,12.0601542 -3.14365201e-12,12.1707057 L-1.93267624e-12,5 C-1.93313619e-12,2.23857625 2.3185254,5.07265313e-16 5.17857143,0 L52.8214286,0 C55.6814746,-5.07265313e-16 58,2.23857625 58,5 L58,56.1707057 Z" id="Rectangle-28" fill="#75829E" fill-rule="nonzero"></path>
                <path d="M29,5 L50,5 C51.6568542,5 53,6.34314575 53,8 L53,66 C53,67.6568542 51.6568542,69 50,69 L29,69 L29,5 Z" id="Rectangle-25" fill="#F1F2F6" opacity="0.5"></path>
                <polygon id="Path-13" fill="#75829E" fill-rule="nonzero" points="36 33 27 33 27 31 34 31 34 27 42 34 34 41 34 37 22 37 22 35.2605517 18.9866069 38 22 40.7394483 22 39 31 39 31 41 24 41 24 45 16 38 24 31 24 35 36 35 36 36.7394483 39.0133931 34 36 31.2605517"></polygon>
            </g>
        </g>
    </g>
</svg>