<?xml version="1.0" encoding="UTF-8"?>
<svg width="78px" height="73px" viewBox="0 0 78 73" version="1.1" xmlns="http://www.w3.org/2000/svg" xmlns:xlink="http://www.w3.org/1999/xlink">
    <!-- Generator: Sketch 48.2 (47327) - http://www.bohemiancoding.com/sketch -->
    <title>header-fungible</title>
    <desc>Created with Sketch.</desc>
    <defs></defs>
    <g id="Dashboard_MainPage" stroke="none" stroke-width="1" fill="none" fill-rule="evenodd" transform="translate(-1041.000000, -765.000000)">
        <g id="01" transform="translate(249.000000, 729.000000)">
            <g id="header-fungible" transform="translate(792.000000, 36.000000)">
                <path d="M4.99600361e-16,13.8292943 C0.312778925,13.9398458 0.649364577,14 1,14 C1.35063542,14 1.68722107,13.9398458 2,13.8292943 L2,29 C2,30.6568542 3.34314575,32 5,32 L29,32 C30.6568542,32 32,30.6568542 32,29 L32,5 C32,3.34314575 30.6568542,2 29,2 L5,2 C3.34314575,2 2,3.34314575 2,5 L2,8.17070571 C1.68722107,8.06015422 1.35063542,8 1,8 C0.649364577,8 0.312778925,8.06015422 2.77555756e-17,8.17070571 L0,5 C-3.38176876e-16,2.23857625 2.23857625,2.28362215e-15 5,0 L29,0 C31.7614237,-5.07265313e-16 34,2.23857625 34,5 L34,29 C34,31.7614237 31.7614237,34 29,34 L5,34 C2.23857625,34 2.11453371e-15,31.7614237 1.77635684e-15,29 L6.53499054e-16,13.8292943 Z" id="Combined-Shape" fill="#75829E" fill-rule="nonzero"></path>
                <path d="M78,58.1707057 C77.6872211,58.0601542 77.3506354,58 77,58 C76.6493646,58 76.3127789,58.0601542 76,58.1707057 L76,44 C76,42.3431458 74.6568542,41 73,41 L49,41 C47.3431458,41 46,42.3431458 46,44 L46,68 C46,69.6568542 47.3431458,71 49,71 L73,71 C74.6568542,71 76,69.6568542 76,68 L76,63.8292943 C76.3127789,63.9398458 76.6493646,64 77,64 C77.3506354,64 77.6872211,63.9398458 78,63.8292943 L78,68 C78,70.7614237 75.7614237,73 73,73 L49,73 C46.2385763,73 44,70.7614237 44,68 L44,44 C44,41.2385763 46.2385763,39 49,39 L73,39 C75.7614237,39 78,41.2385763 78,44 L78,58.1707057 Z" id="Combined-Shape" fill="#75829E" fill-rule="nonzero"></path>
                <path d="M17,5 L26,5 C27.6568542,5 29,6.34314575 29,8 L29,26 C29,27.6568542 27.6568542,29 26,29 L17,29 L17,5 Z" id="Rectangle-12" fill-opacity="0.5" fill="#F1F2F6"></path>
                <path d="M61,44 L70,44 C71.6568542,44 73,45.3431458 73,47 L73,65 C73,66.6568542 71.6568542,68 70,68 L61,68 L61,44 Z" id="Rectangle-12" fill-opacity="0.5" fill="#F1F2F6"></path>
                <polygon id="Path-15" fill="#75829E" fill-rule="nonzero" points="61.2928932 26.2928932 62.7071068 27.7071068 59 31.4142136 55.2928932 27.7071068 56.7071068 26.2928932 59 28.5857864"></polygon>
                <polygon id="Path-15" fill="#75829E" fill-rule="nonzero" points="21.2928932 47.4142136 19 45.1213203 16.7071068 47.4142136 15.2928932 46 19 42.2928932 22.7071068 46"></polygon>
                <path d="M44,16 L44,14 C52.567423,14 60,20.6809681 60,29 L58,29 C58,21.8358859 51.507577,16 44,16 Z" id="Path-18" fill="#75829E" fill-rule="nonzero"></path>
                <path d="M34,57 L34,59 C25.432577,59 18,52.3190319 18,44 L20,44 C20,51.1641141 26.492423,57 34,57 Z" id="Path-18" fill="#75829E" fill-rule="nonzero"></path>
                <polygon id="Path-7" fill="#75829E" points="15 21 14 21 11 21 11 18.9984424 13 18.9984424 13 13 17 16.4325108 21 13.1468729 21 18.9984424 23 19.0219291 23 21 19 21 19 17.3791101 17 19.0219291 15 17.3791101"></polygon>
                <polygon id="Path-7" fill="#75829E" points="59 60 58 60 55 60 55 57.9984424 57 57.9984424 57 52 61 55.4325108 65 52.1468729 65 57.9984424 67 58.0219291 67 60 63 60 63 56.3791101 61 58.0219291 59 56.3791101"></polygon>
            </g>
        </g>
    </g>
</svg>