<?xml version="1.0" encoding="UTF-8"?>
<svg width="78px" height="67px" viewBox="0 0 78 67" version="1.1" xmlns="http://www.w3.org/2000/svg" xmlns:xlink="http://www.w3.org/1999/xlink">
    <!-- Generator: Sketch 48.2 (47327) - http://www.bohemiancoding.com/sketch -->
    <title>header-private</title>
    <desc>Created with Sketch.</desc>
    <defs></defs>
    <g id="Dashboard_MainPage" stroke="none" stroke-width="1" fill="none" fill-rule="evenodd" transform="translate(-801.000000, -770.000000)">
        <g id="01" transform="translate(249.000000, 729.000000)">
            <g id="header-private" transform="translate(552.000000, 41.000000)">
                <path d="M78,44.8292943 L78,52 C78,56.418278 74.418278,60 70,60 L47,60 L39,67 L31,60 L8,60 C3.581722,60 4.13972903e-14,56.418278 4.08562073e-14,52 L1.0055543e-14,18.8292943 C0.312778925,18.9398458 0.649364577,19 1,19 C1.35063542,19 1.68722107,18.9398458 2,18.8292943 L2,52 C2,55.3137085 4.6862915,58 8,58 L31.7514702,58 L39,64.3424635 L46.2485298,58 L47,58 L70,58 C73.3137085,58 76,55.3137085 76,52 L76,44.8292943 C76.3127789,44.9398458 76.6493646,45 77,45 C77.3506354,45 77.6872211,44.9398458 78,44.8292943 Z M78,39.1707057 C77.6872211,39.0601542 77.3506354,39 77,39 C76.6493646,39 76.3127789,39.0601542 76,39.1707057 L76,8 C76,4.6862915 73.3137085,2 70,2 L8,2 C4.6862915,2 2,4.6862915 2,8 L2,13.1707057 C1.68722107,13.0601542 1.35063542,13 1,13 C0.649364577,13 0.312778925,13.0601542 4.77395901e-15,13.1707057 L0,8 C-5.41083001e-16,3.581722 3.581722,-7.65539184e-17 8,-9.46633086e-30 L70,-2.39808173e-14 C74.418278,-1.69440035e-14 78,3.581722 78,8 L78,39.1707057 Z" id="Combined-Shape" fill="#75829E" fill-rule="nonzero"></path>
                <path d="M39,5 L67,5 C70.3137085,5 73,7.6862915 73,11 L73,49 C73,52.3137085 70.3137085,55 67,55 L47,55 L39,61 L39,5 Z" id="Rectangle-11" fill="#F1F2F6" opacity="0.5"></path>
                <path d="M39,34 L39,35 C39,35.5522847 38.5522847,36 38,36 C37.4477153,36 37,35.5522847 37,35 L37,34 L36,34 C35.4477153,34 35,33.5522847 35,33 C35,32.4477153 35.4477153,32 36,32 L40,32 C40.5522847,32 41,32.4477153 41,33 C41,33.5522847 40.5522847,34 40,34 L39,34 Z M31,26 C31,22.1340068 34.1340068,19 38,19 C41.8659932,19 45,22.1340068 45,26 L46,26 C47.6568542,26 49,27.3431458 49,29 L49,38 C49,39.6568542 47.6568542,41 46,41 L30,41 C28.3431458,41 27,39.6568542 27,38 L27,29 C27,27.3431458 28.3431458,26 30,26 L31,26 Z M31,28 L30,28 C29.4477153,28 29,28.4477153 29,29 L29,38 C29,38.5522847 29.4477153,39 30,39 L46,39 C46.5522847,39 47,38.5522847 47,38 L47,29 C47,28.4477153 46.5522847,28 46,28 L45,28 L31,28 Z M33,26 L43,26 C43,23.2385763 40.7614237,21 38,21 C35.2385763,21 33,23.2385763 33,26 Z" id="Combined-Shape" fill="#75829E" fill-rule="nonzero"></path>
            </g>
        </g>
    </g>
</svg>