<?xml version="1.0" encoding="UTF-8"?>
<svg width="60px" height="74px" viewBox="0 0 60 74" version="1.1" xmlns="http://www.w3.org/2000/svg" xmlns:xlink="http://www.w3.org/1999/xlink">
    <!-- Generator: Sketch 48.2 (47327) - http://www.bohemiancoding.com/sketch -->
    <title>header-secure</title>
    <desc>Created with Sketch.</desc>
    <defs></defs>
    <g id="Dashboard_MainPage" stroke="none" stroke-width="1" fill="none" fill-rule="evenodd" transform="translate(-330.000000, -765.000000)">
        <g id="01" transform="translate(249.000000, 729.000000)" fill-rule="nonzero">
            <g id="header-secure" transform="translate(81.000000, 36.000000)">
                <path d="M47.8971268,59.790785 C47.2661942,59.5412444 46.7401004,59.0839341 46.4032128,58.5032216 C43.1035803,62.4196233 38.977545,65.7011078 32.9136237,69.7026677 C32.4762741,69.9912732 32.022881,70.288518 31.4501102,70.6625737 C31.2421295,70.7983982 30.2924935,71.4178343 29.9999991,71.6088743 C29.7075052,71.4178345 28.7578703,70.7983993 28.5498899,70.6625748 C27.9771197,70.2885196 27.5237272,69.9912751 27.086378,69.7026699 C18.5053063,64.0400516 13.8048823,59.8193965 9.83542247,53.2009733 C6.94766298,48.386108 4.83123707,42.6068429 3.53109949,35.5804128 C3.0828844,35.8469368 2.55931711,36 2,36 C1.85569928,36 1.71377811,35.9898119 1.57491655,35.9701159 C5.91617241,59.3868758 18.4960487,66.4306061 29.9999991,74 C36.1299694,69.966589 42.5654357,66.0824337 47.8971226,59.79079 Z M51.3339779,55.1150187 C50.9105726,54.5914147 50.3145497,54.2131559 49.6324533,54.0667865 C49.8114453,53.7826645 49.988729,53.4941707 50.1645781,53.2009712 C55.1575628,44.8759876 57.8446463,33.6679314 57.9934622,18.1152197 C47.7942644,14.1758038 38.5216156,9.06736393 29.9999991,2.53412583 C21.4783832,9.06736354 12.2057347,14.1758035 2.00653776,18.1152119 C2.04781304,22.4289083 2.28435323,26.4083772 2.71120036,30.0848041 C2.48321521,30.029378 2.24503841,30 2,30 C1.54424824,30 1.11223286,30.1016275 0.725379398,30.2834569 C0.253603599,26.2203297 0,21.7266327 0,16.7380853 C10.4636568,12.8284209 20.5289137,7.47989793 29.9999991,0 C39.4710846,7.47989793 49.5363414,12.8284209 60,16.7380853 C60,35.249703 56.507825,46.9471272 51.3339779,55.1150187 Z" id="Combined-Shape" fill="#75829E"></path>
                <path d="M29.9999986,5 C37.8925695,11.4691009 46.2802834,16.0948505 54.9999986,19.4761819 C54.9999986,53.5495711 41.8186408,60.9293 29.9999986,69 L29.9999986,5 Z" id="Combined-Shape" fill="#F1F2F6" opacity="0.5"></path>
                <path d="M30,46 C25.0294373,46 21,41.9705627 21,37 C21,32.0294373 25.0294373,28 30,28 C34.9705627,28 39,32.0294373 39,37 C39,41.9705627 34.9705627,46 30,46 Z M30,44 C33.8659932,44 37,40.8659932 37,37 C37,33.1340068 33.8659932,30 30,30 C26.1340068,30 23,33.1340068 23,37 C23,40.8659932 26.1340068,44 30,44 Z M33.2928932,33.7928932 L34.7071068,35.2071068 L29,40.9142136 L26.2928932,38.2071068 L27.7071068,36.7928932 L29,38.0857864 L33.2928932,33.7928932 Z" id="Combined-Shape" fill="#75829E"></path>
            </g>
        </g>
    </g>
</svg>