<?xml version="1.0" encoding="UTF-8"?>
<svg width="74px" height="62px" viewBox="0 0 74 62" version="1.1" xmlns="http://www.w3.org/2000/svg" xmlns:xlink="http://www.w3.org/1999/xlink">
    <!-- Generator: Sketch 48.2 (47327) - http://www.bohemiancoding.com/sketch -->
    <title>image-monero</title>
    <desc>Created with Sketch.</desc>
    <defs>
        <path d="M4,0 L70,0 C72.209139,-4.05812251e-16 74,1.790861 74,4 L74,12 L0,12 L0,4 C-2.705415e-16,1.790861 1.790861,4.05812251e-16 4,0 Z" id="path-1"></path>
        <circle id="path-2" cx="37" cy="35" r="15"></circle>
    </defs>
    <g id="Dashboard_Support" stroke="none" stroke-width="1" fill="none" fill-rule="evenodd" transform="translate(-442.000000, -371.000000)">
        <g id="Content" transform="translate(374.000000, 30.000000)">
            <g id="What-is-Hosted-MyMonero" transform="translate(1.000000, 253.000000)">
                <g id="image-monero" transform="translate(67.000000, 88.000000)">
                    <g id="Rectangle-4">
                        <use fill="#F1F2F6" fill-rule="evenodd" xlink:href="#path-1"></use>
                        <path stroke="#474E5D" stroke-width="2" d="M1,11 L73,11 L73,4 C73,2.34314575 71.6568542,1 70,1 L4,1 C2.34314575,1 1,2.34314575 1,4 L1,11 Z"></path>
                    </g>
                    <rect id="Rectangle-4" stroke="#474E5D" stroke-width="2" x="1" y="1" width="72" height="60" rx="4"></rect>
                    <rect id="Rectangle-7" fill="#474E5D" x="2" y="10" width="70" height="2"></rect>
                    <circle id="Oval-6" fill="#474E5D" cx="7" cy="6" r="1"></circle>
                    <circle id="Oval-6" fill="#474E5D" cx="11" cy="6" r="1"></circle>
                    <circle id="Oval-6" fill="#474E5D" cx="15" cy="6" r="1"></circle>
                    <g id="Oval-8">
                        <use fill="#FFFFFF" fill-rule="evenodd" xlink:href="#path-2"></use>
                        <circle stroke="#474E5D" stroke-width="2" cx="37" cy="35" r="14"></circle>
                    </g>
                    <polygon id="Path-4" fill="#474E5D" fill-rule="nonzero" points="32 41 24 41 24 39 30 39 30 29.5857864 37 36.5857864 44 29.5857864 44 39 50 39 50 41 42 41 42 34.4142136 37 39.4142136 32 34.4142136"></polygon>
                </g>
            </g>
        </g>
    </g>
</svg>