<?xml version="1.0" encoding="UTF-8"?>
<svg width="39px" height="39px" viewBox="0 0 40 39" version="1.1" xmlns="http://www.w3.org/2000/svg" xmlns:xlink="http://www.w3.org/1999/xlink">
    <!-- Generator: Sketch 48.2 (47327) - http://www.bohemiancoding.com/sketch -->
    <title>info-support-white</title>
    <desc>Created with Sketch.</desc>
    <defs></defs>
    <g id="Dashboard_Support" stroke="none" stroke-width="1" fill="none" fill-rule="evenodd" transform="translate(-415.000000, -174.000000)">
        <g id="Content" transform="translate(374.000000, 30.000000)">
            <g id="Email01" transform="translate(1.000000, 104.000000)">
                <g id="info-support-white" transform="translate(40.000000, 40.000000)">
                    <path d="M19.5,39 C8.73044738,39 0,30.2695526 0,19.5 C0,8.73044738 8.73044738,0 19.5,0 C30.2695526,0 39,8.73044738 39,19.5 C39,30.2695526 30.2695526,39 19.5,39 Z M19.5,27 C23.6421356,27 27,23.6421356 27,19.5 C27,15.3578644 23.6421356,12 19.5,12 C15.3578644,12 12,15.3578644 12,19.5 C12,23.6421356 15.3578644,27 19.5,27 Z" id="Support" fill="#F1F2F6"></path>
                    <path d="M24.2123678,25.3350138 L25.3350138,24.2123678 C26.3763376,22.9245768 27,21.2851205 27,19.5 C27,15.3578644 23.6421356,12 19.5,12 C17.7148795,12 16.0754232,12.6236624 14.7876322,13.6649862 L13.6649862,14.7876322 C12.6236624,16.0754232 12,17.7148795 12,19.5 C12,23.6421356 15.3578644,27 19.5,27 C21.2851205,27 22.9245768,26.3763376 24.2123678,25.3350138 Z M31.1471674,32.5613809 L25.4733134,26.8875269 C23.8414595,28.2086338 21.7631465,29 19.5,29 C17.2368535,29 15.1585405,28.2086338 13.5266866,26.8875269 L7.85283265,32.5613809 C10.9465696,35.3220834 15.0273356,37 19.5,37 C23.9726644,37 28.0534304,35.3220834 31.1471674,32.5613809 Z M32.5613809,31.1471674 C35.3220834,28.0534304 37,23.9726644 37,19.5 C37,15.0273356 35.3220834,10.9465696 32.5613809,7.85283265 L26.8875269,13.5266866 C28.2086338,15.1585405 29,17.2368535 29,19.5 C29,21.7631465 28.2086338,23.8414595 26.8875269,25.4733134 L32.5613809,31.1471674 Z M6.43861909,7.85283265 C3.67791658,10.9465696 2,15.0273356 2,19.5 C2,23.9726644 3.67791658,28.0534304 6.43861909,31.1471674 L12.1124731,25.4733134 C10.7913662,23.8414595 10,21.7631465 10,19.5 C10,17.2368535 10.7913662,15.1585405 12.1124731,13.5266866 L6.43861909,7.85283265 Z M7.85283265,6.43861909 L13.5266866,12.1124731 C15.1585405,10.7913662 17.2368535,10 19.5,10 C21.7631465,10 23.8414595,10.7913662 25.4733134,12.1124731 L31.1471674,6.43861909 C28.0534304,3.67791658 23.9726644,2 19.5,2 C15.0273356,2 10.9465696,3.67791658 7.85283265,6.43861909 Z M19.5,39 C8.73044738,39 0,30.2695526 0,19.5 C0,8.73044738 8.73044738,0 19.5,0 C30.2695526,0 39,8.73044738 39,19.5 C39,30.2695526 30.2695526,39 19.5,39 Z" id="Suport" fill="#474E5D" fill-rule="nonzero"></path>
                </g>
            </g>
        </g>
    </g>
</svg>