<?xml version="1.0" encoding="UTF-8"?>
<svg width="20px" height="20px" viewBox="0 0 20 20" version="1.1" xmlns="http://www.w3.org/2000/svg" xmlns:xlink="http://www.w3.org/1999/xlink">
    <!-- Generator: Sketch 48.2 (47327) - http://www.bohemiancoding.com/sketch -->
    <title>key-white</title>
    <desc>Created with Sketch.</desc>
    <defs></defs>
    <g id="UI" stroke="none" stroke-width="1" fill="none" fill-rule="evenodd" transform="translate(-1168.000000, -214.000000)">
        <g id="Icons" transform="translate(820.000000, 210.000000)" fill="#474E5D" fill-rule="nonzero">
            <g id="key-white" transform="translate(344.000000, 0.000000)">
                <path d="M11.4173933,12.1683931 L19.5857864,4 L24,4 L24,10 L21,10 L21,13 L18,13 L18,15.4142136 L15.9742082,17.4400054 C15.9912769,17.6243765 16,17.8111695 16,18 C16,21.3137085 13.3137085,24 10,24 C6.6862915,24 4,21.3137085 4,18 C4,14.6862915 6.6862915,12 10,12 C10.4882831,12 10.9629433,12.0583268 11.4173933,12.1683931 Z M13.9079597,17 C13.9077253,16.9997661 13.9074911,16.9995321 13.9072571,16.9992981 L14.2928932,16.2928932 L16,14.5857864 L16,11 L19,11 L19,8 L22,8 L22,6 L20.4142136,6 L12.7564842,13.6577293 L12,14.4858835 L12,14.5351288 C11.4116533,14.1947886 10.7285743,14 10,14 C7.790861,14 6,15.790861 6,18 C6,20.209139 7.790861,22 10,22 C12.209139,22 14,20.209139 14,18 C14,17.6547004 13.956247,17.3196199 13.8739825,17 L13.9079597,17 Z M10,19 C9.44771525,19 9,18.5522847 9,18 C9,17.4477153 9.44771525,17 10,17 C10.5522847,17 11,17.4477153 11,18 C11,18.5522847 10.5522847,19 10,19 Z" id="Combined-Shape"></path>
            </g>
        </g>
    </g>
</svg>