<?xml version="1.0" encoding="UTF-8"?>
<svg viewBox="0 0 165 30" version="1.1" xmlns="http://www.w3.org/2000/svg" xmlns:xlink="http://www.w3.org/1999/xlink">
    <!-- Generator: Sketch 48.2 (47327) - http://www.bohemiancoding.com/sketch -->
    <title>logo-wallet</title>
    <desc>Created with Sketch.</desc>
    <defs></defs>
    <g id="Dashboard_Overview" stroke="none" stroke-width="1" fill="none" fill-rule="evenodd" transform="translate(-42.000000, -36.000000)">
        <g id="Header">
            <g id="Logo" transform="translate(42.000000, 36.000000)">
                <g>
                    <path d="M50.31,14.764 L46.08,8.428 L50.436,8.428 L52.272,11.938 L54.54,8.428 L58.896,8.428 L54.414,14.764 L59.472,22 L55.17,22 L52.452,17.572 L49.266,22 L45,22 L50.31,14.764 Z M60.282,22 L62.586,8.428 L66.078,8.428 L68.796,15.664 L71.496,8.428 L74.988,8.428 L77.292,22 L73.782,22 L72.612,14.188 L69.408,22 L68.004,22 L64.962,14.188 L63.792,22 L60.282,22 Z M83.052,14.494 L83.718,14.494 C84.4140035,14.494 84.9479981,14.3500014 85.32,14.062 C85.6920019,13.7739986 85.878,13.3600027 85.878,12.82 C85.878,12.2799973 85.6920019,11.8660014 85.32,11.578 C84.9479981,11.2899986 84.4140035,11.146 83.718,11.146 L83.052,11.146 L83.052,14.494 Z M90.81,22 L86.418,22 L83.052,16.78 L83.052,22 L79.524,22 L79.524,8.428 L85.014,8.428 C85.7700038,8.428 86.4299972,8.53899889 86.994,8.761 C87.5580028,8.98300111 88.0229982,9.28599808 88.389,9.67 C88.7550018,10.0540019 89.0309991,10.4979975 89.217,11.002 C89.4030009,11.5060025 89.496,12.0459971 89.496,12.622 C89.496,13.6540052 89.2470025,14.4909968 88.749,15.133 C88.2509975,15.7750032 87.5160049,16.2099989 86.544,16.438 L90.81,22 Z M94.554,8.428 L96.894,17.194 L99.774,8.428 L102.582,8.428 L105.462,17.194 L107.802,8.428 L111.492,8.428 L107.442,22 L103.842,22 L101.178,14.134 L98.514,22 L94.914,22 L90.864,8.428 L94.554,8.428 Z M120.294,16.96 L118.71,12.442 L117.126,16.96 L120.294,16.96 Z M121.23,19.642 L116.19,19.642 L115.38,22 L111.618,22 L116.784,8.428 L120.636,8.428 L125.802,22 L122.04,22 L121.23,19.642 Z M130.878,8.428 L130.878,19.012 L135.108,19.012 L135.108,22 L127.35,22 L127.35,8.428 L130.878,8.428 Z M140.454,8.428 L140.454,19.012 L144.684,19.012 L144.684,22 L136.926,22 L136.926,8.428 L140.454,8.428 Z M154.224,11.416 L150.03,11.416 L150.03,13.684 L153.99,13.684 L153.99,16.672 L150.03,16.672 L150.03,19.012 L154.224,19.012 L154.224,22 L146.502,22 L146.502,8.428 L154.224,8.428 L154.224,11.416 Z M161.91,11.416 L161.91,22 L158.382,22 L158.382,11.416 L155.484,11.416 L155.484,8.428 L164.808,8.428 L164.808,11.416 L161.91,11.416 Z" id="XMRWALLET" fill="#FFFFFF"></path>
                    <g id="graphic" stroke="#FFFFFF" stroke-width="2">
                        <circle id="Oval" cx="15" cy="15" r="14"></circle>
                        <polyline id="Path-10" points="7 27 7 10 15 15 23 10 23 27"></polyline>
                        <polyline id="Path-10" points="7 17 15 22 23 17"></polyline>
                    </g>
                </g>
            </g>
        </g>
    </g>
</svg>