<?xml version="1.0" encoding="UTF-8"?>
<svg width="26px" height="26px" viewBox="0 0 26 26" version="1.1" xmlns="http://www.w3.org/2000/svg" xmlns:xlink="http://www.w3.org/1999/xlink">
    <!-- Generator: Sketch 48.2 (47327) - http://www.bohemiancoding.com/sketch -->
    <title>monero-white</title>
    <desc>Created with Sketch.</desc>
    <defs></defs>
    <g id="UI" stroke="none" stroke-width="1" fill="none" fill-rule="evenodd" transform="translate(-818.000000, -268.000000)">
        <g id="Menu" transform="translate(818.000000, 268.000000)" fill-rule="nonzero">
            <g id="monero-white">
                <path d="M12.949214,0 C5.79870817,0 0,5.798607 0,12.9493152 C0,14.3785058 0.231673152,15.7532685 0.65940856,17.0395097 L4.53229572,17.0395097 L4.53229572,6.14419455 L12.9494163,14.5613152 L21.3663346,6.14419455 L21.3663346,17.0394086 L25.2392218,17.0394086 C25.6672607,15.7531673 25.8989339,14.3784047 25.8989339,12.949214 C25.8988327,5.7983035 20.1000233,0 12.949214,0" id="Shape" fill="#FF6600"></path>
                <path d="M11.0137821,16.5977121 L7.34039689,12.9242257 L7.34039689,19.7798288 L1.88403891,19.7798288 C4.15726848,23.5091595 8.2627393,25.9995953 12.9490117,25.9995953 C17.635284,25.9995953 21.7411595,23.5091595 24.0140856,19.7798288 L18.5578288,19.7798288 L18.5578288,12.9241245 L14.8844436,16.5975097 L12.9491128,18.5327393 L11.0139844,16.5976109 L11.0137821,16.5976109 L11.0137821,16.5977121 Z" id="Shape" fill="#474E5D"></path>
            </g>
        </g>
    </g>
</svg>