<?xml version="1.0" encoding="UTF-8"?>
<svg width="22px" height="20px" viewBox="0 0 22 20" version="1.1" xmlns="http://www.w3.org/2000/svg" xmlns:xlink="http://www.w3.org/1999/xlink">
    <!-- Generator: Sketch 48.2 (47327) - http://www.bohemiancoding.com/sketch -->
    <title>quit</title>
    <desc>Created with Sketch.</desc>
    <defs></defs>
    <g id="UI" stroke="none" stroke-width="1" fill="none" fill-rule="evenodd" transform="translate(-363.000000, -214.000000)">
        <g id="Icons" transform="translate(100.000000, 210.000000)" fill="#FFFFFF" fill-rule="nonzero">
            <g id="quit" transform="translate(258.000000, 0.000000)">
                <path d="M23.4121051,13 L21.9123848,11.3394807 L23.3966362,10.0036469 L27,14.0044031 L23.3966362,18.0010223 L21.9114645,16.6713663 L23.4168165,15 L16,15 C15.4477153,15 15,14.5522847 15,14 C15,13.4477153 15.4477153,13 16,13 L23.4121051,13 Z M21,20 L21,21 C21,22.6568542 19.5673112,24 17.8,24 L8.2,24 C6.4326888,24 5,22.6568542 5,21 L5,7 C5,5.34314575 6.4326888,4 8.2,4 L17.8,4 C19.5673112,4 21,5.34314575 21,7 L21,8 C21,8.55228475 20.5522847,9 20,9 C19.4477153,9 19,8.55228475 19,8 L19,7 C19,6.44771525 18.5115834,6 17.9090909,6 L8.09090909,6 C7.48841664,6 7,6.44771525 7,7 L7,21 C7,21.5522847 7.48841664,22 8.09090909,22 L17.9090909,22 C18.5115834,22 19,21.5522847 19,21 L19,20 C19,19.4477153 19.4477153,19 20,19 C20.5522847,19 21,19.4477153 21,20 Z"></path>
            </g>
        </g>
    </g>
</svg>