<?xml version="1.0" encoding="UTF-8"?>
<svg width="23px" height="22px" viewBox="0 0 23 22" version="1.1" xmlns="http://www.w3.org/2000/svg" xmlns:xlink="http://www.w3.org/1999/xlink">
    <!-- Generator: Sketch 48.2 (47327) - http://www.bohemiancoding.com/sketch -->
    <title>receive</title>
    <desc>Created with Sketch.</desc>
    <defs></defs>
    <g id="UI" stroke="none" stroke-width="1" fill="none" fill-rule="evenodd" transform="translate(-233.000000, -213.000000)">
        <g id="Icons" transform="translate(100.000000, 210.000000)" fill="#FFFFFF" fill-rule="nonzero">
            <g id="receive" transform="translate(129.000000, 0.000000)">
                <path d="M24,9.32306588 L25.6329016,7.77999878 L26.9988251,9.21624275 L22.9999223,12.9987592 L19.0016327,9.21624275 L20.3670097,7.7800303 L22,9.3233231 L22,4 C22,3.44771525 22.4477153,3 23,3 C23.5522847,3 24,3.44771525 24,4 L24,9.32306588 Z M19,17 C19.5522847,17 20,17.4477153 20,18 C20,18.5522847 19.5522847,19 19,19 L16,19 L16,15.3819279 L14,17.0234684 L12,15.3819279 L12,19 L11,19 L9,19 C8.44771525,19 8,18.5522847 8,18 C8,17.4477153 8.44771525,17 9,17 L10,17 L10,11.0062256 L14,14.4360652 L18,11.1529842 L18,17 L19,17 Z M22,16 C22,15.4477153 22.4477153,15 23,15 C23.5522847,15 24,15.4477153 24,16 L24,22 C24,23.6568542 22.6568542,25 21,25 L7,25 C5.34314575,25 4,23.6568542 4,22 L4,8 C4,6.34314575 5.34314575,5 7,5 L16,5 C16.5522847,5 17,5.44771525 17,6 C17,6.55228475 16.5522847,7 16,7 L7,7 C6.44771525,7 6,7.44771525 6,8 L6,22 C6,22.5522847 6.44771525,23 7,23 L21,23 C21.5522847,23 22,22.5522847 22,22 L22,16 Z" id="Receive"></path>
            </g>
        </g>
    </g>
</svg>