<?xml version="1.0" encoding="UTF-8"?>
<svg width="20px" height="20px" viewBox="0 0 20 20" version="1.1" xmlns="http://www.w3.org/2000/svg" xmlns:xlink="http://www.w3.org/1999/xlink">
    <!-- Generator: Sketch 48.2 (47327) - http://www.bohemiancoding.com/sketch -->
    <title>receive-qr-white</title>
    <desc>Created with Sketch.</desc>
    <defs></defs>
    <g id="UI" stroke="none" stroke-width="1" fill="none" fill-rule="evenodd" transform="translate(-1125.000000, -214.000000)">
        <g id="Icons" transform="translate(820.000000, 210.000000)" fill="#474E5D" fill-rule="nonzero">
            <g id="receive-qr-white" transform="translate(301.000000, 0.000000)">
                <path d="M15,13 L20,13 L20,15 L15,15 L15,20 L13,20 L13,15 L8,15 L8,13 L13,13 L13,8 L15,8 L15,13 Z M22,10 L22,7 C22,6.44771525 21.5522847,6 21,6 L18,6 C17.4477153,6 17,5.55228475 17,5 C17,4.44771525 17.4477153,4 18,4 L21,4 C22.6568542,4 24,5.34314575 24,7 L24,10 C24,10.5522847 23.5522847,11 23,11 C22.4477153,11 22,10.5522847 22,10 Z M22,18 C22,17.4477153 22.4477153,17 23,17 C23.5522847,17 24,17.4477153 24,18 L24,21 C24,22.6568542 22.6568542,24 21,24 L18,24 C17.4477153,24 17,23.5522847 17,23 C17,22.4477153 17.4477153,22 18,22 L21,22 C21.5522847,22 22,21.5522847 22,21 L22,18 Z M10,22 C10.5522847,22 11,22.4477153 11,23 C11,23.5522847 10.5522847,24 10,24 L7,24 C5.34314575,24 4,22.6568542 4,21 L4,18 C4,17.4477153 4.44771525,17 5,17 C5.55228475,17 6,17.4477153 6,18 L6,21 C6,21.5522847 6.44771525,22 7,22 L10,22 Z M4,10 L4,7 C4,5.34314575 5.34314575,4 7,4 L10,4 C10.5522847,4 11,4.44771525 11,5 C11,5.55228475 10.5522847,6 10,6 L7,6 C6.44771525,6 6,6.44771525 6,7 L6,10 C6,10.5522847 5.55228475,11 5,11 C4.44771525,11 4,10.5522847 4,10 Z M10,10 L10,18 L18,18 L18,10 L10,10 Z M10,8 L18,8 C19.1045695,8 20,8.8954305 20,10 L20,18 C20,19.1045695 19.1045695,20 18,20 L10,20 C8.8954305,20 8,19.1045695 8,18 L8,10 C8,8.8954305 8.8954305,8 10,8 Z" id="ReceiveQr"></path>
            </g>
        </g>
    </g>
</svg>