<?xml version="1.0" encoding="UTF-8"?>
<svg width="138px" height="133px" viewBox="0 0 138 133" version="1.1" xmlns="http://www.w3.org/2000/svg" xmlns:xlink="http://www.w3.org/1999/xlink">
    <!-- Generator: Sketch 48.2 (47327) - http://www.bohemiancoding.com/sketch -->
    <title>section-receive-white</title>
    <desc>Created with Sketch.</desc>
    <defs></defs>
    <g id="Page-1" stroke="none" stroke-width="1" fill="none" fill-rule="evenodd" opacity="0.0800000057">
        <g id="section-receive-white" fill="#7E838D" fill-rule="nonzero">
            <path d="M120.00613,37.9403334 L129.80404,28.6814578 L138,37.2993619 L114.005358,59.9956202 L90.0143944,37.2993619 L98.2070749,28.681647 L108.005517,37.9418768 L108.005517,6.00030652 C108.005517,2.68642873 110.691946,0 114.005824,0 C117.319702,0 120.00613,2.68642873 120.00613,6.00030652 L120.00613,37.9403334 Z M90.0045978,84.0042913 C93.3184756,84.0042913 96.0049043,86.69072 96.0049043,90.0045978 C96.0049043,93.3184756 93.3184756,96.0049043 90.0045978,96.0049043 L72.0036782,96.0049043 L72.0036782,74.2953628 L60.0030652,84.1451091 L48.0024521,74.2953628 L48.0024521,96.0049043 L42.0021456,96.0049043 L30.0015326,96.0049043 C26.6876548,96.0049043 24.0012261,93.3184756 24.0012261,90.0045978 C24.0012261,86.69072 26.6876548,84.0042913 30.0015326,84.0042913 L36.0018391,84.0042913 L36.0018391,48.0398076 L60.0030652,68.6198968 L84.0042913,48.9204042 L84.0042913,84.0042913 L90.0045978,84.0042913 Z M108.005517,78.0039847 C108.005517,74.690107 110.691946,72.0036782 114.005824,72.0036782 C117.319702,72.0036782 120.00613,74.690107 120.00613,78.0039847 L120.00613,114.005824 C120.00613,123.947457 111.946844,132.006743 102.005211,132.006743 L18.0009196,132.006743 C8.0592862,132.006743 0,123.947457 0,114.005824 L0,30.0015326 C0,20.0598992 8.0592862,12.000613 18.0009196,12.000613 L72.0036782,12.000613 C75.317556,12.000613 78.0039847,14.6870418 78.0039847,18.0009196 C78.0039847,21.3147973 75.317556,24.0012261 72.0036782,24.0012261 L18.0009196,24.0012261 C14.6870418,24.0012261 12.000613,26.6876548 12.000613,30.0015326 L12.000613,114.005824 C12.000613,117.319702 14.6870418,120.00613 18.0009196,120.00613 L102.005211,120.00613 C105.319089,120.00613 108.005517,117.319702 108.005517,114.005824 L108.005517,78.0039847 Z" id="Receive"></path>
        </g>
    </g>
</svg>