<?xml version="1.0" encoding="UTF-8"?>
<svg width="23px" height="22px" viewBox="0 0 23 22" version="1.1" xmlns="http://www.w3.org/2000/svg" xmlns:xlink="http://www.w3.org/1999/xlink">
    <!-- Generator: Sketch 48.2 (47327) - http://www.bohemiancoding.com/sketch -->
    <title>send</title>
    <desc>Created with Sketch.</desc>
    <defs></defs>
    <g id="UI" stroke="none" stroke-width="1" fill="none" fill-rule="evenodd" transform="translate(-190.000000, -212.000000)">
        <g id="Icons" transform="translate(100.000000, 210.000000)" fill="#FFFFFF" fill-rule="nonzero">
            <g id="send" transform="translate(86.000000, 0.000000)">
                <path d="M24,5.67569336 L24,11 C24,11.5522847 23.5522847,12 23,12 C22.4477153,12 22,11.5522847 22,11 L22,5.67543614 L20.3670097,7.21872893 L19.0016327,5.78251648 L22.9999223,2 L26.9988251,5.78251648 L25.6329016,7.21876045 L24,5.67569336 Z M19,16 C19.5522847,16 20,16.4477153 20,17 C20,17.5522847 19.5522847,18 19,18 L16,18 L16,14.3819279 L14,16.0234684 L12,14.3819279 L12,18 L11,18 L9,18 C8.44771525,18 8,17.5522847 8,17 C8,16.4477153 8.44771525,16 9,16 L10,16 L10,10.0062256 L14,13.4360652 L18,10.1529842 L18,16 L19,16 Z M22,15 C22,14.4477153 22.4477153,14 23,14 C23.5522847,14 24,14.4477153 24,15 L24,21 C24,22.6568542 22.6568542,24 21,24 L7,24 C5.34314575,24 4,22.6568542 4,21 L4,7 C4,5.34314575 5.34314575,4 7,4 L16,4 C16.5522847,4 17,4.44771525 17,5 C17,5.55228475 16.5522847,6 16,6 L7,6 C6.44771525,6 6,6.44771525 6,7 L6,21 C6,21.5522847 6.44771525,22 7,22 L21,22 C21.5522847,22 22,21.5522847 22,21 L22,15 Z" id="Send"></path>
            </g>
        </g>
    </g>
</svg>