<?xml version="1.0" encoding="UTF-8"?>
<svg width="18" height="18" xmlns="http://www.w3.org/2000/svg">
    <g fill="none" fill-rule="evenodd">
        <g>
            <g>
                <g>
                    <g>
                        <path d="M9 18c-4.97056275 0-9-4.0294373-9-9 0-4.97056275 4.02943725-9 9-9 4.9705627 0 9 4.02943725 9 9 0 4.9705627-4.0294373 9-9 9z"
                              fill="#FFF" fill-rule="nonzero"/>
                        <path d="M3.34141142 7C4.16508423 4.66961525 6.38756235 3 9 3c2.6124377 0 4.8349158 1.66961525 5.6585886 4h-2.1937174C11.7732524 5.80439726 10.4805647 5 9 5c-1.48056471 0-2.77325238.80439726-3.46487122 2H3.34141142zm-.25845298 3h2.04305905C5.57006028 11.7252272 7.13616057 13 9 13c1.8638394 0 3.4299397-1.2747728 3.8739825-3h2.0430591C14.4409635 12.8377133 11.9729963 15 9 15c-2.97299629 0-5.44096347-2.1622867-5.91704156-5z"
                              fill="#EA7B31" fill-rule="nonzero"/>
                        <path stroke="#EA7B31" stroke-width="2" d="M10 7h4V3.5M8 11H4v4"/>
                    </g>
                </g>
            </g>
        </g>
    </g>
</svg>