<?xml version="1.0" encoding="UTF-8"?>
<svg width="22px" height="22px" viewBox="0 0 22 22" version="1.1" xmlns="http://www.w3.org/2000/svg" xmlns:xlink="http://www.w3.org/1999/xlink">
    <!-- Generator: Sketch 48.2 (47327) - http://www.bohemiancoding.com/sketch -->
    <title>support</title>
    <desc>Created with Sketch.</desc>
    <defs></defs>
    <g id="UI" stroke="none" stroke-width="1" fill="none" fill-rule="evenodd" transform="translate(-318.000000, -213.000000)">
        <g id="Icons" transform="translate(100.000000, 210.000000)" fill="#FFFFFF" fill-rule="nonzero">
            <g id="support" transform="translate(215.000000, 0.000000)">
                <path d="M19.6176858,21.0318994 L17.4765344,18.8907479 C16.4957155,19.589209 15.2958304,20 14,20 C12.8872871,20 11.8453189,19.6971059 10.952049,19.1692714 L8.78519846,21.3361219 C10.2564268,22.3838136 12.0562544,23 14,23 C16.1250137,23 18.078015,22.2635271 19.6176858,21.0318994 Z M21.0318994,19.6176858 C22.2635271,18.078015 23,16.1250137 23,14 C23,12.0562544 22.3838136,10.2564268 21.3361219,8.78519846 L19.1692714,10.952049 C19.6971059,11.8453189 20,12.8872871 20,14 C20,15.2958304 19.589209,16.4957155 18.8907479,17.4765344 L21.0318994,19.6176858 Z M7.29225329,20.0006399 L9.4184727,17.8744205 C8.53357843,16.8290793 8,15.4768516 8,14 C8,12.7041696 8.41079097,11.5042845 9.10925208,10.5234656 L6.96810063,8.38231419 C5.73647287,9.92198502 5,11.8749863 5,14 C5,16.3053721 5.86679291,18.4082939 7.29225329,20.0006399 Z M20.0006399,7.29225329 C18.4082939,5.86679291 16.3053721,5 14,5 C11.8749863,5 9.92198502,5.73647287 8.38231419,6.96810063 L10.5234656,9.10925208 C11.5042845,8.41079097 12.7041696,8 14,8 C15.4768516,8 16.8290793,8.53357843 17.8744205,9.4184727 L20.0006399,7.29225329 Z M14,25 C7.92486775,25 3,20.0751322 3,14 C3,7.92486775 7.92486775,3 14,3 C20.0751322,3 25,7.92486775 25,14 C25,20.0751322 20.0751322,25 14,25 Z M14,18 C16.209139,18 18,16.209139 18,14 C18,11.790861 16.209139,10 14,10 C11.790861,10 10,11.790861 10,14 C10,16.209139 11.790861,18 14,18 Z" id="Support"></path>
            </g>
        </g>
    </g>
</svg>