<?xml version="1.0" encoding="UTF-8"?>
<svg width="16px" height="26px" viewBox="0 0 16 26" version="1.1" xmlns="http://www.w3.org/2000/svg" xmlns:xlink="http://www.w3.org/1999/xlink">
    <!-- Generator: Sketch 48.2 (47327) - http://www.bohemiancoding.com/sketch -->
    <title>usd-white</title>
    <desc>Created with Sketch.</desc>
    <defs></defs>
    <g id="Dashboard_Overview2" stroke="none" stroke-width="1" fill="none" fill-rule="evenodd" transform="translate(-1128.000000, -38.000000)">
        <g id="Content" transform="translate(374.000000, 29.000000)" fill="#474E5D" fill-rule="nonzero">
            <g id="Wallet" transform="translate(740.000000, 0.000000)">
                <g id="monero">
                    <path d="M21.9149778,28.6808444 C19.7714222,28.6808444 18.5034889,27.6061778 18.1215778,25.4597333 L14,26.4480222 C14.8334444,29.8615333 16.9885556,31.7450889 20.4777556,32.0741333 L20.4777556,35 L23.1421778,35 L23.1421778,32.0596889 C25.2314222,31.8531333 26.8324444,31.1817556 27.9377333,30.0345778 C29.0473556,28.8824889 29.6008667,27.4588444 29.6008667,25.7356222 C29.6008667,24.6135778 29.3298889,23.6391556 28.7960222,22.8013778 C28.2566667,21.9667778 27.5399333,21.3063778 26.6409111,20.8354889 C25.7410222,20.3608444 24.4959111,19.8555778 22.9145333,19.3240222 C21.4810667,18.8242444 20.5320667,18.4229778 20.0941111,18.0942222 C19.6558667,17.7594 19.4360222,17.2870667 19.4360222,16.6694222 C19.4360222,16.0540889 19.6599111,15.5378444 20.1215556,15.1097111 C20.5739556,14.6815778 21.1768667,14.4704 21.9274,14.4704 C23.4296222,14.4704 24.5343333,15.4286444 25.2528,17.3396444 L28.9271778,15.9480667 C28.0498222,13.1594222 26.1194667,11.6060667 23.1447778,11.2698 L23.1447778,9 L20.4783333,9 L20.4783333,11.2695111 C18.5017556,11.5324 17.0555778,12.2346889 16.1429778,13.3815778 C15.2243111,14.5330889 14.7623778,15.8371333 14.7623778,17.2772444 C14.7623778,18.3680889 15.0226667,19.3384667 15.5374667,20.1655556 C16.0485111,20.9877333 16.7187333,21.6354222 17.5466889,22.0918667 C18.3720444,22.5535111 19.5174889,23.0168889 20.9807111,23.482 C22.6094667,24.0109556 23.6575556,24.4593111 24.1368222,24.8071333 C24.6045333,25.1471556 24.8440222,25.6590667 24.8440222,26.3356444 C24.8440222,26.9795778 24.6045333,27.5362667 24.1368222,27.9984889 C23.6595778,28.4503111 22.9168444,28.6808444 21.9149778,28.6808444 Z" id="usd-white"></path>
                </g>
            </g>
        </g>
    </g>
</svg>